<svg width="28" height="28" viewBox="0 0 28 28" fill="none" xmlns="http://www.w3.org/2000/svg">
                    <path d="M14 11.667A2.333 2.333 0 0 0 11.667 14c0 1.19-.117 2.929-.304 4.667m4.972-3.36c0 2.776 0 7.443-1.167 10.36m5.004-1.144c.14-.7.502-2.683.583-3.523M2.332 14a11.667 11.667 0 0 1 21-7m-21 11.667h.01m23.092 0c.233-2.333.152-6.246 0-7" stroke="#00A63E" stroke-width="2" stroke-linecap="round" stroke-linejoin="round"/>
                    <path d="M5.832 22.75C6.415 21 6.999 17.5 6.999 14a7 7 0 0 1 .396-2.333m2.695 13.999c.245-.77.525-1.54.665-2.333m-.255-15.4A7 7 0 0 1 21 14v2.333" stroke="#00A63E" stroke-width="2" stroke-linecap="round" stroke-linejoin="round"/>
                </svg>
